<?xml version="1.0" encoding="utf-8"?>
<!-- Generator: Adobe Illustrator 21.1.0, SVG Export Plug-In . SVG Version: 6.00 Build 0)  -->
<svg version="1.1" xmlns="http://www.w3.org/2000/svg" xmlns:xlink="http://www.w3.org/1999/xlink" x="0px" y="0px"
	 viewBox="0 0 1420 298" style="enable-background:new 0 0 1420 298;" xml:space="preserve">
<style type="text/css">
	.st0{fill:none;stroke:#EF8E59;stroke-width:19;stroke-miterlimit:10;}
	.st1{fill:none;stroke:#EA2121;stroke-width:19;stroke-miterlimit:10;}
	.st2{fill:none;stroke:#5763F2;stroke-width:19;stroke-miterlimit:10;}
	.st3{fill:none;stroke:#ECF456;stroke-width:19;stroke-miterlimit:10;}
	.st4{fill:#5763F2;}
	.st5{fill:#ECF456;}
	.st6{fill:#EA2121;}
</style>
<g id="Layer_2">
	<path class="st0" d="M212.5,191.5c0,0,44-17,56-33s42-35,42-35"/>
	<path class="st0" d="M310.5,213.5c0,0,37-31,44-36s22-28,22-28"/>
	<path class="st1" d="M670.5,129.5c0,0-2,22,0,42s6,42,6,42"/>
	<path class="st0" d="M957.5,136.5c0,0-2,11,16,34s30,55,30,55"/>
	<path class="st2" d="M1002.5,114.5c0,0,28,28,42,57s24,78,24,78"/>
	<path class="st0" d="M1079.5,85.5c0,0,8,24,40,57s29,84,29,84"/>
	<path class="st0" d="M1177.5,93.5c0,0,11,26,30,44s26,44,26,44"/>
	<path class="st3" d="M590.5,149.5c0,0,5-5,15,22s0,30,0,30"/>
	<path class="st4" d="M736.5,137.5c0,0-12-7-6,28s15,36,15,36"/>
	<path class="st3" d="M231.5,192.5c0,0,44-17,56-33s42-35,42-35"/>
	<path class="st2" d="M329.5,213.5c0,0,37-31,44-36s22-28,22-28"/>
	<path class="st0" d="M583.5,156.5c0,0,5-5,15,22s0,30,0,30"/>
	<path class="st0" d="M657.5,113.5c0,0-2,22,0,42s6,42,6,42"/>
	<path class="st0" d="M726.5,137.5c0,0-12-7-6,28s15,36,15,36"/>
	<path class="st1" d="M939.5,130.5c0,0-2,11,16,34s30,55,30,55"/>
	<path class="st0" d="M1018.5,114.5c0,0,28,28,42,57s24,78,24,78"/>
	<path class="st3" d="M1066.5,85.5c0,0,8,24,40,57s29,84,29,84"/>
	<path class="st1" d="M1164.5,93.5c0,0,11,26,30,44s26,44,26,44"/>
</g>
<g id="Layer_3">
	<circle class="st5" cx="210" cy="68" r="12.5"/>
	<circle class="st5" cx="508" cy="267" r="5.5"/>
	<circle class="st5" cx="796" cy="75" r="7.5"/>
	<circle class="st5" cx="944.5" cy="18.5" r="5"/>
	<circle class="st5" cx="1139" cy="55" r="9.5"/>
	<circle class="st5" cx="1182" cy="277" r="4.5"/>
	<circle class="st5" cx="863.5" cy="234.5" r="15"/>
	<circle class="st5" cx="223.5" cy="256.5" r="14"/>
	<circle class="st5" cx="494.5" cy="150.5" r="13"/>
	<circle class="st5" cx="53" cy="93" r="19.5"/>
	<circle class="st4" cx="386.5" cy="92.5" r="13.4"/>
	<circle class="st4" cx="755.5" cy="252.5" r="9.5"/>
	<circle class="st4" cx="528.5" cy="181.5" r="20.5"/>
	<circle class="st4" cx="1006" cy="249" r="13"/>
	<circle class="st4" cx="1006" cy="88" r="13"/>
	<circle class="st4" cx="327.5" cy="236.5" r="16.5"/>
	<circle class="st4" cx="1277" cy="185" r="16"/>
	<circle class="st6" cx="635" cy="241" r="16"/>
	<circle class="st6" cx="624" cy="113" r="21"/>
	<circle class="st6" cx="130.5" cy="189.5" r="14.5"/>
	<circle class="st6" cx="1281" cy="101" r="20"/>
	<circle class="st6" cx="896" cy="85" r="17"/>
	<circle class="st6" cx="296" cy="96" r="15"/>
</g>
<g id="Layer_1">
	<path class="st3" d="M16.5,170.5c0,0,164-65,277-50s255,86,384,81s314-123,408-128s304,82,304,82"/>
	<path class="st1" d="M33.5,182.5c0,0,164-65,277-50s255,86,384,81s314-123,408-128s304,82,304,82"/>
	<path class="st2" d="M16.5,80.5c0,0,176,117,320,121s262-85,341-85s274,120,392,120s282-156,282-156"/>
	<path class="st0" d="M9.5,93.5c0,0,176,117,320,121s262-85,341-85s274,120,392,120s282-156,282-156"/>
</g>
</svg>
