<?xml version="1.0" standalone="no"?>
<!DOCTYPE svg PUBLIC "-//W3C//DTD SVG 20010904//EN"
 "http://www.w3.org/TR/2001/REC-SVG-20010904/DTD/svg10.dtd">
<svg version="1.0" xmlns="http://www.w3.org/2000/svg"
 width="700.000000pt" height="700.000000pt" viewBox="0 0 700.000000 700.000000"
 preserveAspectRatio="xMidYMid meet">
<metadata>
Created by potrace 1.11, written by Peter Selinger 2001-2013
</metadata>
<g transform="translate(0.000000,700.000000) scale(0.100000,-0.100000)"
fill="#000000" stroke="none">
<path d="M3338 6265 c-2 -1 -39 -5 -83 -9 -102 -8 -132 -13 -230 -37 -140 -35
-339 -118 -432 -181 -23 -15 -44 -28 -47 -28 -15 0 -174 -131 -244 -200 -67
-66 -212 -241 -212 -254 0 -2 -17 -33 -39 -67 -92 -152 -175 -384 -196 -549
-4 -30 -9 -64 -11 -75 -12 -59 -3 -392 11 -415 2 -3 6 -26 10 -50 30 -206 159
-488 309 -675 47 -60 168 -185 177 -185 4 0 31 19 61 43 169 136 398 243 618
290 174 38 209 38 158 3 -81 -57 -227 -224 -316 -361 -77 -119 -180 -359 -199
-465 -2 -14 -8 -44 -13 -67 -5 -22 -12 -63 -16 -90 -11 -95 -14 -88 41 -88
131 -1 386 67 548 146 91 44 91 44 195 112 40 26 81 47 91 47 10 0 46 -9 82
-21 241 -79 422 -259 503 -499 41 -124 51 -278 25 -397 -7 -32 -13 -60 -14
-63 -6 -28 -33 -96 -58 -145 -101 -196 -271 -334 -492 -400 -79 -24 -280 -29
-367 -9 -260 60 -468 234 -565 474 -29 73 -53 178 -53 237 0 30 -5 45 -17 51
-14 6 -654 9 -755 3 -15 -1 -16 -11 -13 -78 5 -108 13 -167 41 -293 31 -146
149 -399 252 -544 57 -79 227 -259 290 -306 19 -14 46 -34 60 -46 76 -60 309
-184 377 -200 17 -4 35 -10 40 -14 20 -13 175 -53 255 -65 25 -4 59 -9 75 -12
36 -6 312 -6 340 0 11 3 45 8 75 12 124 16 331 80 453 141 410 206 710 575
821 1012 14 53 27 113 30 132 4 19 9 46 12 60 12 56 11 300 -2 395 -20 145
-20 142 -47 235 -79 270 -203 480 -404 686 l-49 51 -35 -29 c-192 -161 -465
-283 -739 -329 -120 -20 -116 -22 -58 29 302 268 485 615 533 1011 l6 54 -78
-7 c-249 -23 -498 -111 -711 -253 l-83 -55 -46 12 c-199 50 -386 196 -487 380
-63 117 -88 208 -92 350 -4 134 7 207 48 310 164 415 622 610 1033 439 96 -40
168 -87 246 -164 149 -146 222 -314 238 -550 1 -7 137 -10 388 -9 l388 1 1 74
c2 81 -7 147 -38 284 -116 508 -483 925 -978 1111 -72 28 -236 71 -290 78 -19
2 -55 7 -80 11 -44 6 -237 14 -242 10z"/>
</g>
</svg>
